<?xml version="1.0" encoding="UTF-8" standalone="no"?>
<svg
   xmlns:dc="http://purl.org/dc/elements/1.1/"
   xmlns:cc="http://creativecommons.org/ns#"
   xmlns:rdf="http://www.w3.org/1999/02/22-rdf-syntax-ns#"
   xmlns:svg="http://www.w3.org/2000/svg"
   xmlns="http://www.w3.org/2000/svg"
   xmlns:sodipodi="http://sodipodi.sourceforge.net/DTD/sodipodi-0.dtd"
   xmlns:inkscape="http://www.inkscape.org/namespaces/inkscape"
   width="329.59274mm"
   height="132.41656mm"
   viewBox="0 0 934.27866 375.35404"
   version="1.1"
   id="svg571"
   sodipodi:docname="wekkerKatov2.01.svg"
   inkscape:version="0.92.1 r15371">
  <metadata
     id="metadata577">
    <rdf:RDF>
      <cc:Work
         rdf:about="">
        <dc:format>image/svg+xml</dc:format>
        <dc:type
           rdf:resource="http://purl.org/dc/dcmitype/StillImage" />
        <dc:title></dc:title>
      </cc:Work>
    </rdf:RDF>
  </metadata>
  <defs
     id="defs575" />
  <sodipodi:namedview
     pagecolor="#ffffff"
     bordercolor="#666666"
     borderopacity="1"
     objecttolerance="10"
     gridtolerance="10"
     guidetolerance="10"
     inkscape:pageopacity="0"
     inkscape:pageshadow="2"
     inkscape:window-width="2256"
     inkscape:window-height="1363"
     id="namedview573"
     showgrid="false"
     inkscape:zoom="0.78317268"
     inkscape:cx="784.59858"
     inkscape:cy="-26.55816"
     inkscape:window-x="0"
     inkscape:window-y="71"
     inkscape:window-maximized="1"
     inkscape:current-layer="svg571"
     showguides="true"
     inkscape:guide-bbox="true"
     fit-margin-top="0"
     fit-margin-left="0"
     fit-margin-right="0"
     fit-margin-bottom="0" />
  <path
     style="fill:none;stroke:#ff0000;stroke-width:0.5669291;stroke-miterlimit:4;stroke-dasharray:none;stroke-opacity:1"
     d="m 280.63328,248.23329 h 28.04998 v -27.59998 h -9.07499 v -27.44998 h 9.07499 v -27.59998 h -9.07499 v -27.44998 h 9.07499 v -27.59999 h -9.07499 V 83.083405 h 9.07499 v -27.59998 h -9.07499 v -27.44998 h 9.07499 V 0.28346455 H 280.55828 V 9.3584546 H 252.5833 V 0.28346455 H 224.45831 V 9.3584546 H 196.48333 V 0.28346455 H 168.35835 V 9.3584546 H 140.38337 V 0.28346455 H 112.25839 V 9.3584546 H 84.283409 V 0.28346455 H 56.308428 V 9.3584546 H 28.333446 V 0.28346455 H 0.28346455 V 27.883445 H 9.3584583 v 27.44998 H 0.28346455 v 27.59998 H 9.3584583 V 110.38338 H 0.28346455 v 27.59999 H 9.3584583 v 27.44998 H 0.28346455 v 27.74998 H 9.3584583 v 27.52498 H 0.28346455 v 27.52498 H 28.408446 v -9.07499 h 27.974982 v 9.07499 h 28.124981 v -9.07499 h 27.974981 v 9.07499 h 28.12498 v -9.07499 h 27.97498 v 9.07499 h 28.12498 v -9.07499 h 27.97498 v 9.07499 h 28.04999 v -9.07499 h 27.97498 z"
     inkscape:connector-curvature="0"
     id="path24" />
  <polygon
     points="68.5106,19.0605 187.872,19.0605 187.872,171.02 68.5106,171.02 "
     id="polygon3"
     transform="rotate(-90,126.03716,134.23891)"
     style="fill:none;stroke:#0000ff;stroke-width:0.5669291;stroke-miterlimit:4;stroke-dasharray:none;stroke-opacity:1" />
  <circle
     r="4.4346108"
     cy="25.162226"
     cx="-133.26143"
     id="path2166"
     style="fill:none;stroke:#ff0000;stroke-width:0.5669291;stroke-miterlimit:4;stroke-dasharray:none;stroke-opacity:1"
     transform="rotate(-90)" />
  <circle
     r="4.4346137"
     cy="152.48599"
     cx="-133.27213"
     id="path2166-7"
     style="fill:none;stroke:#ff0000;stroke-width:0.5669291;stroke-miterlimit:4;stroke-dasharray:none;stroke-opacity:1"
     transform="rotate(-90)" />
  <path
     inkscape:connector-curvature="0"
     id="path1042"
     style="font-size:16.00000954px;fill:none;stroke:#0000ff;stroke-width:0.5669291;stroke-miterlimit:4;stroke-dasharray:none;stroke-opacity:1"
     d="m 85.651997,146.11724 v 1.43554 l -7.804685,4.13672 h 7.804685 v 1.08399 H 76.92739 v -1.79883 l 7.124999,-3.77344 H 76.92739 v -1.08398 z" />
  <path
     inkscape:connector-curvature="0"
     id="path1044"
     style="font-size:16.00000954px;fill:none;stroke:#0000ff;stroke-width:0.5669291;stroke-miterlimit:4;stroke-dasharray:none;stroke-opacity:1"
     d="m 85.651997,136.91802 v 1.23633 l -2.431639,0.85547 v 3.77344 l 2.431639,0.85546 v 1.17774 l -8.724607,-3.17578 v -1.54687 z" />
  <path
     inkscape:connector-curvature="0"
     id="path9"
     style="font-size:16.00000954px;fill:none;stroke:#0000ff;stroke-width:0.5669291;stroke-miterlimit:4;stroke-dasharray:none;stroke-opacity:1"
     d="m 82.224265,139.36724 -4.283203,1.5293 4.283203,1.53516 z" />
  <path
     inkscape:connector-curvature="0"
     id="path1046"
     style="font-size:16.00000954px;fill:none;stroke:#0000ff;stroke-width:0.5669291;stroke-miterlimit:4;stroke-dasharray:none;stroke-opacity:1"
     d="m 85.651997,128.93756 v 1.43554 l -7.804685,4.13672 h 7.804685 v 1.08398 H 76.92739 v -1.79883 l 7.124999,-3.77343 H 76.92739 v -1.08398 z" />
  <path
     inkscape:connector-curvature="0"
     id="path1048"
     style="font-size:16.00000954px;fill:none;stroke:#0000ff;stroke-width:0.5669291;stroke-miterlimit:4;stroke-dasharray:none;stroke-opacity:1"
     d="m 77.929343,120.11334 q 0.585937,-0.5332 1.435547,-0.81445 0.849609,-0.28711 1.927734,-0.28711 1.078125,0 1.933593,0.29296 0.84961,0.28711 1.417968,0.8086 0.591795,0.53906 0.890625,1.27734 0.29883,0.73243 0.29883,1.67578 0,0.91992 -0.304688,1.67579 -0.304687,0.75 -0.884767,1.27734 -0.580077,0.52734 -1.423827,0.81445 -0.84375,0.28125 -1.927734,0.28125 -1.066406,0 -1.910156,-0.28125 -0.84961,-0.28125 -1.453125,-0.82031 -0.574219,-0.51563 -0.878907,-1.27735 -0.304687,-0.76757 -0.304687,-1.66992 0,-0.9375 0.310547,-1.68164 0.304687,-0.75 0.873047,-1.27148 z" />
  <path
     inkscape:connector-curvature="0"
     id="path13"
     style="font-size:16.00000954px;fill:none;stroke:#0000ff;stroke-width:0.5669291;stroke-miterlimit:4;stroke-dasharray:none;stroke-opacity:1"
     d="m 81.292624,120.2188 q -1.699219,0 -2.619141,0.76173 -0.925781,0.76171 -0.925781,2.08008 0,1.33007 0.925781,2.09179 0.919922,0.75586 2.619141,0.75586 1.716797,0 2.630859,-0.77344 0.908202,-0.77344 0.908202,-2.07421 0,-1.30079 -0.908202,-2.06837 -0.914062,-0.77344 -2.630859,-0.77344 z" />
  <g
     id="g15663"
     transform="rotate(90,726.01262,468.68827)">
    <path
       d="m 541.05557,508.65558 h 28.04998 v -27.59999 h -9.07499 v -27.52498 h 9.075 v -27.59998 h -9.075 v -27.44998 h 9.075 v -27.59998 h -9.075 v -27.44999 h 9.075 V 315.8307 h -9.075 v -27.44998 h 9.075 v -27.52498 h -28.12499 v 8.92499 h -27.97498 v -9.07499 h -28.04998 v 9.07499 h -27.97498 v -9.07499 h -28.12498 v 9.07499 h -27.97499 v -9.07499 h -28.12498 v 9.07499 H 344.7807 v -9.07499 h -28.12498 v 9.07499 h -27.97499 v -9.07499 h -27.97498 v 27.59998 h 9.075 v 27.44998 h -9.075 v 27.59998 h 9.075 v 27.44999 h -9.075 v 27.59998 h 9.075 v 27.44998 h -9.075 v 27.74998 h 9.075 v 27.52498 h -9.075 v 27.52499 h 28.12498 v -9.075 h 27.97498 v 9.075 h 28.12498 v -9.075 h 27.97498 v 9.075 h 28.04999 v -9.075 h 27.97498 v 9.075 h 28.12498 v -9.075 h 27.97498 v 9.075 h 28.12498 v -9.075 h 27.97499 z"
       inkscape:connector-curvature="0"
       id="path24-2"
       style="fill:none;stroke:#ff0000;stroke-width:0.5669291;stroke-miterlimit:4;stroke-dasharray:none" />
    <circle
       transform="rotate(-90)"
       cy="514.28052"
       cx="-413.33066"
       id="path878"
       r="18.824987"
       style="fill:none;stroke:#fe0000;stroke-width:0.5669291;stroke-miterlimit:4;stroke-dasharray:none" />
    <circle
       transform="rotate(-90)"
       cy="490.88058"
       cx="-313.73068"
       id="path878-8"
       r="18.824987"
       style="fill:none;stroke:#ff0000;stroke-width:0.5669291;stroke-miterlimit:4;stroke-dasharray:none" />
    <polygon
       style="fill:none;stroke:#ff0000;stroke-width:0.5669291;stroke-miterlimit:4;stroke-dasharray:none;stroke-opacity:1"
       transform="translate(224.44639,-61.350342)"
       id="polygon42"
       points="179.241,459.194 179.241,490.168 94.4093,490.168 94.4093,459.194 " />
  </g>
  <g
     id="g15667"
     transform="rotate(90,486.52551,153.31373)">
    <path
       id="path30-1"
       inkscape:connector-curvature="0"
       d="m 683.12415,320.31209 h 15.15 v -27.97501 h 9.075 v -28.12499 h -9.075 v -27.97501 h 9.075 v -28.125 h -9.075 v -27.97499 h 9.075 v -28.12501 h -9.075 v -27.97499 h 9.075 V 95.91208 h -9.075 V 67.93709 h 9.075 v -28.125 h -9.075 v -28.05 h -15.225 v 9.225 h -24.15 v -9.075 h -24.29999 v 9.075 h -24.15001 v -9.075 h -15.15 v 27.975 h -9.075 v 28.125 h 9.075 v 27.97499 h -9.075 v 28.12501 h 9.075 v 27.97499 h -9.075 v 28.12501 h 9.075 v 27.97499 h -9.075 v 28.05 h 9.075 v 27.97501 h -9.075 v 28.12499 h 9.075 v 28.05001 h 15.225 v -9.15 h 24.15001 v 9.075 h 24.29999 v -9.075 h 24.15 z"
       style="fill:none;stroke:#ff0000;stroke-width:0.5669291;stroke-miterlimit:4;stroke-dasharray:none;stroke-opacity:1" />
    <polygon
       style="fill:none;stroke:#ff0000;stroke-width:0.5669291;stroke-miterlimit:4;stroke-dasharray:none;stroke-opacity:1"
       transform="translate(313.42648,-372.6243)"
       id="polygon218"
       points="328.598,408.686 328.598,432.986 319.523,432.986 319.523,408.686 " />
  </g>
  <g
     id="g15657"
     transform="rotate(90,486.01041,153.73183)">
    <g
       id="g15652">
      <path
         style="fill:none;stroke:#ff0000;stroke-width:0.5669291;stroke-miterlimit:4;stroke-dasharray:none;stroke-opacity:1"
         d="m 610.44917,328.89103 h -15.15 v 27.97501 h -9.075 v 28.12499 h 9.075 v 27.97501 h -9.075 v 28.125 h 9.075 v 27.97499 h -9.075 v 28.12501 h 9.075 v 27.97499 h -9.075 v 28.12501 h 9.075 v 27.97499 h -9.075 v 28.125 h 9.075 v 28.05 h 15.225 v -9.225 h 24.15 v 9.075 h 24.29999 v -9.075 h 24.15001 v 9.075 h 15.15 v -27.975 h 9.075 v -28.125 h -9.075 v -27.97499 h 9.075 v -28.12501 h -9.075 v -27.97499 h 9.075 v -28.12501 h -9.075 v -27.97499 h 9.075 v -28.05 h -9.075 v -27.97501 h 9.075 v -28.12499 h -9.075 v -28.05001 h -15.225 v 9.15 h -24.15001 v -9.075 h -24.29999 v 9.075 h -24.15 z"
         inkscape:connector-curvature="0"
         id="path222" />
    </g>
    <polygon
       style="fill:none;stroke:#ff0000;stroke-width:0.5669291;stroke-miterlimit:4;stroke-dasharray:none;stroke-opacity:1"
       transform="rotate(180,490.07342,510.91371)"
       id="polygon224"
       points="328.598,408.686 328.598,432.986 319.523,432.986 319.523,408.686 " />
  </g>
  <path
     id="path26-9"
     inkscape:connector-curvature="0"
     sodipodi:nodetypes="ccccccccccccccccccccc"
     class="st1"
     d="m 365.63717,248.2333 h -24.22499 v -9.075 h -15.14999 v -18.37499 h -9.07499 v -27.59998 h 9.07499 c 0,-82.57492 0,0 0,-82.57492 h -9.07499 c 0,-82.724948 0,-47.249968 0,-82.724948 h 9.07499 V 9.4334716 h 15.07499 V 0.35848155 h 24.29999 V 9.4334716 h 60.29996 V 239.1583 h -60.29996 z"
     style="fill:none;stroke:#ff0000;stroke-width:0.5669291;stroke-miterlimit:4;stroke-dasharray:none;stroke-opacity:1" />
  <circle
     r="4.1757774"
     cy="-345.1925"
     cx="98.143639"
     id="path945"
     style="fill:none;stroke:#ff0000;stroke-width:0.5669291;stroke-miterlimit:4;stroke-dasharray:none;stroke-opacity:1"
     transform="rotate(90)" />
  <circle
     r="4.1757803"
     cy="-419.10745"
     cx="98.143639"
     id="path945-2"
     style="fill:none;stroke:#ff0000;stroke-width:0.5669291;stroke-miterlimit:4;stroke-dasharray:none;stroke-opacity:1"
     transform="rotate(90)" />
  <circle
     r="4.1757832"
     cy="-419.10745"
     cx="44.043453"
     id="path945-2-5"
     style="fill:none;stroke:#ff0000;stroke-width:0.5669291;stroke-miterlimit:4;stroke-dasharray:none;stroke-opacity:1"
     transform="rotate(90)" />
  <circle
     r="4.1757803"
     cy="-345.1925"
     cx="44.043453"
     id="path945-1"
     style="fill:none;stroke:#ff0000;stroke-width:0.5669291;stroke-miterlimit:4;stroke-dasharray:none;stroke-opacity:1"
     transform="rotate(90)" />
  <polygon
     points="398.997,72.485 464.169,17.856 484.2,41.7524 419.028,96.3813 "
     id="polygon358"
     transform="rotate(90,349.91573,83.906606)"
     style="fill:none;stroke:#0000ff;stroke-width:0.5669291;stroke-miterlimit:4;stroke-dasharray:none;stroke-opacity:1" />
  <path
     d="m 365.15289,166.61866 -3.03381,-3.61931 0.68255,-0.57214 1.16685,1.39205 4.48148,-3.75651 -1.16685,-1.39205 0.6107,-0.51191 q 0.23714,0.2829 0.55304,0.56859 0.32039,0.28192 0.54949,0.37277 0.2854,0.11246 0.5539,0.0862 0.27676,-0.0256 0.5837,-0.25225 l 0.58342,0.69602 -6.0262,5.05134 1.14427,1.3651 z"
     style="font-size:16.00000954px;fill:none;stroke:#0000ff;stroke-width:0.5669291;stroke-miterlimit:4;stroke-dasharray:none;stroke-opacity:1"
     id="path997-4"
     inkscape:connector-curvature="0" />
  <path
     d="m 374.06761,172.03655 -2.0514,-2.4473 -2.4473,2.0514 -0.62483,-0.74542 2.4473,-2.0514 -2.0514,-2.4473 0.71847,-0.60225 2.0514,2.44731 2.44731,-2.05141 0.62483,0.74542 -2.44731,2.05141 2.0514,2.4473 z"
     style="font-size:16.00000954px;fill:none;stroke:#0000ff;stroke-width:0.5669291;stroke-miterlimit:4;stroke-dasharray:none;stroke-opacity:1"
     id="path999-3"
     inkscape:connector-curvature="0" />
  <path
     d="m 376.68968,180.38194 -3.79415,-4.52639 0.9385,-0.78669 q 0.79937,0.13274 1.59874,0.26547 0.80313,0.13723 1.5453,0.21086 1.55793,0.16206 2.31463,0.0706 0.76121,-0.0952 1.3315,-0.57326 0.52089,-0.43662 0.52294,-1.02705 0.0103,-0.58971 -0.50537,-1.2049 -0.34253,-0.40863 -0.88522,-0.76417 -0.54268,-0.35554 -1.21922,-0.56065 l -0.0376,-0.0449 0.943,-0.79045 q 0.42441,0.18709 0.99879,0.6078 0.57815,0.42521 0.99596,0.92365 0.86196,1.02832 0.85284,2.02988 -0.005,0.99781 -0.85332,1.70922 -0.38169,0.31994 -0.7968,0.49969 -0.40684,0.18047 -0.8613,0.2403 -0.42521,0.0582 -0.89413,0.0461 -0.46516,-0.008 -1.07526,-0.0697 -0.87426,-0.0852 -1.74791,-0.22453 -0.86917,-0.14303 -1.61901,-0.27141 l 3.015,3.59686 z"
     style="font-size:16.00000954px;fill:none;stroke:#0000ff;stroke-width:0.5669291;stroke-miterlimit:4;stroke-dasharray:none;stroke-opacity:1"
     id="path1001-0"
     inkscape:connector-curvature="0" />
  <path
     d="m 385.28445,185.41814 -2.0514,-2.44731 -2.4473,2.0514 -0.62483,-0.74541 2.4473,-2.0514 -2.0514,-2.44731 0.71847,-0.60224 2.0514,2.4473 2.44731,-2.0514 0.62483,0.74541 -2.44731,2.05141 2.05141,2.4473 z"
     style="font-size:16.00000954px;fill:none;stroke:#0000ff;stroke-width:0.5669291;stroke-miterlimit:4;stroke-dasharray:none;stroke-opacity:1"
     id="path1003-0"
     inkscape:connector-curvature="0" />
  <path
     d="m 390.63309,190.47645 q -0.0124,0.37739 -0.18761,0.76126 -0.17519,0.38387 -0.63771,0.77157 -0.45803,0.38393 -0.97898,0.53773 -0.52097,0.15379 -1.05606,0.0901 -0.59663,-0.0733 -1.13324,-0.40335 -0.52835,-0.32932 -0.9838,-0.87266 -0.46675,-0.55683 -0.78371,-1.2086 -0.32147,-0.64802 -0.45413,-1.12552 l 0.93851,-0.78669 0.0565,0.0674 q 0.0685,0.59248 0.33519,1.24815 0.26672,0.65567 0.66948,1.13615 0.23713,0.2829 0.59867,0.52268 0.36155,0.23978 0.71127,0.28304 0.37073,0.0409 0.69154,-0.0598 0.32457,-0.0962 0.68829,-0.4011 0.35924,-0.30112 0.49487,-0.6136 0.1439,-0.31176 0.10923,-0.62675 -0.0302,-0.31876 -0.22168,-0.64756 -0.18704,-0.33253 -0.46558,-0.66482 l -0.33876,-0.40415 0.74541,-0.62482 0.26349,0.31433 q 0.57213,0.68255 1.19379,0.84955 0.62992,0.16774 1.17776,-0.29148 0.24248,-0.20325 0.33553,-0.45709 0.0975,-0.25761 0.06,-0.53959 -0.0451,-0.29095 -0.18464,-0.54862 -0.13954,-0.25766 -0.37291,-0.53607 -0.35759,-0.42659 -0.91302,-0.7791 -0.55543,-0.3525 -1.19142,-0.54572 l -0.0376,-0.0449 0.9385,-0.78669 q 0.42442,0.18708 0.99879,0.6078 0.58264,0.42144 1.00045,0.91989 0.41028,0.48946 0.63289,0.93745 0.22261,0.44799 0.27721,0.91446 0.0555,0.50399 -0.11061,0.92609 -0.16608,0.4221 -0.57471,0.76463 -0.55682,0.46674 -1.30567,0.42164 -0.74059,-0.0444 -1.29629,-0.48841 l -0.0629,0.0527 q 0.14475,0.24565 0.26137,0.62193 0.12111,0.37251 0.11233,0.70863 z"
     style="font-size:16.00000954px;fill:none;stroke:#0000ff;stroke-width:0.5669291;stroke-miterlimit:4;stroke-dasharray:none;stroke-opacity:1"
     id="path1005-6"
     inkscape:connector-curvature="0" />
  <g
     id="g15676"
     transform="rotate(90,474.6006,468.40722)">
    <path
       id="path34"
       inkscape:connector-curvature="0"
       d="m 16.05592,287.0307 v -15.14999 h 18.37499 v -9.07499 h 27.59997 v 9.07499 h 27.44998 v -9.07499 h 27.59998 v 9.07499 h 27.44998 v -9.07499 h 27.59999 v 9.07499 h 27.44998 v -9.07499 h 27.59998 v 9.07499 h 18.44999 v 15.07499 h 9.07499 v 24.29999 h -9.07499 v 24.14998 h 9.07499 v 24.14999 h -9.07499 v 15.14999 h -18.37499 v 9.07499 h -27.59998 v -9.07499 h -27.44998 v 9.07499 h -27.59999 v -9.07499 h -27.44998 v 9.07499 H 89.55586 v -9.07499 H 62.10588 v 9.07499 H 34.50591 v -9.07499 H 16.05592 V 359.63066 H 6.98093 v -24.29999 h 9.07499 V 311.18069 H 6.98093 V 286.8807 h 9.07499 z"
       style="fill:none;stroke:#ff0000;stroke-width:0.5669291;stroke-miterlimit:4;stroke-dasharray:none;stroke-opacity:1" />
    <path
       id="rect6202"
       inkscape:connector-curvature="0"
       d="m 142.81814,308.76499 h -39.22497 v 27.97498 h 39.29997 z"
       style="fill:none;stroke:#ff0000;stroke-width:0.5669291;stroke-miterlimit:4;stroke-dasharray:none;stroke-opacity:1" />
    <path
       d="m 127.5308,344.79183 q 0,-0.94921 0.21094,-1.6582 0.20508,-0.70313 0.67969,-1.17188 0.45117,-0.44531 1.05468,-0.65038 0.60352,-0.20508 1.40625,-0.20508 0.82032,0 1.4297,0.21679 0.60937,0.2168 1.02538,0.63867 0.47462,0.48047 0.68555,1.16016 0.20508,0.67969 0.20508,1.66992 v 5.2207 h -1.16016 v -5.27929 q 0,-0.70899 -0.0937,-1.11914 -0.0996,-0.41016 -0.32812,-0.74414 -0.25781,-0.38086 -0.69727,-0.57422 -0.44531,-0.19336 -1.06641,-0.19336 -0.62694,0 -1.0664,0.1875 -0.43945,0.19336 -0.70312,0.58008 -0.22852,0.33398 -0.32227,0.76172 -0.0996,0.43359 -0.0996,1.07227 v 5.30858 h -1.16016 z"
       style="font-size:16.00000954px;fill:none;stroke:#0000ff;stroke-width:0.5669291;stroke-miterlimit:4;stroke-dasharray:none;stroke-opacity:1"
       id="path1055"
       inkscape:connector-curvature="0" />
    <path
       d="m 118.97026,343.77816 q 0,-0.50977 0.24024,-1.00781 0.23437,-0.49804 0.6621,-0.84375 0.46875,-0.375 1.09571,-0.58594 0.62109,-0.21093 1.5,-0.21093 0.94335,0 1.69921,0.17577 0.75001,0.17579 1.5293,0.52149 v 1.45313 h -0.082 q -0.66211,-0.55079 -1.5293,-0.84962 -0.86718,-0.29882 -1.62891,-0.29882 -1.07812,0 -1.67577,0.40429 -0.60352,0.4043 -0.60352,1.07813 0,0.58008 0.28711,0.85547 0.28125,0.27539 0.86133,0.42773 0.43945,0.11719 0.95508,0.19336 0.50976,0.0762 1.08398,0.19336 1.16016,0.2461 1.72266,0.83789 0.55664,0.59766 0.55664,1.55274 0,1.0957 -0.92579,1.79296 -0.92578,0.70313 -2.3496,0.70313 -0.91993,0 -1.68751,-0.17578 -0.76757,-0.17578 -1.35937,-0.4336 v -1.37109 h 0.082 q 0.49805,0.42188 1.3125,0.69726 0.8086,0.28125 1.65821,0.28125 0.93164,0 1.5,-0.38671 0.56249,-0.38672 0.56249,-0.9961 0,-0.54492 -0.28125,-0.85546 -0.28124,-0.31056 -0.99023,-0.47462 -0.375,-0.082 -1.06641,-0.19921 -0.6914,-0.11719 -1.17187,-0.24023 -0.97266,-0.25782 -1.46485,-0.77931 -0.49218,-0.52148 -0.49218,-1.45898 z"
       style="font-size:16.00000954px;fill:none;stroke:#0000ff;stroke-width:0.5669291;stroke-miterlimit:4;stroke-dasharray:none;stroke-opacity:1"
       id="path1057"
       inkscape:connector-curvature="0" />
    <path
       d="m 110.5269,343.97152 q 0,-0.65039 0.24609,-1.14844 0.24609,-0.49804 0.66211,-0.82031 0.49219,-0.38671 1.08399,-0.55078 0.58594,-0.16406 1.49413,-0.16406 h 3.09376 v 8.7246 h -2.58399 q -0.95508,0 -1.42969,-0.0703 -0.4746,-0.0703 -0.9082,-0.29297 -0.48046,-0.25195 -0.69727,-0.65039 -0.21679,-0.39258 -0.21679,-0.94336 0,-0.62109 0.31641,-1.06055 0.3164,-0.43359 0.84375,-0.69726 v -0.0469 q -0.88477,-0.18164 -1.39454,-0.7793 -0.50976,-0.5918 -0.50976,-1.5 z"
       style="font-size:16.00000954px;fill:none;stroke:#0000ff;stroke-width:0.5669291;stroke-miterlimit:4;stroke-dasharray:none;stroke-opacity:1"
       id="path1059"
       inkscape:connector-curvature="0" />
    <path
       d="m 112.47807,347.90316 q 0,0.31641 0.10547,0.5332 0.10547,0.2168 0.33984,0.35157 0.2754,0.1582 0.66797,0.19335 0.39258,0.041 0.97266,0.041 h 1.38281 v -2.51954 h -1.5 q -0.54492,0 -0.86719,0.0527 -0.32226,0.0586 -0.59766,0.23437 -0.27538,0.17578 -0.38671,0.45117 -0.11719,0.28125 -0.11719,0.66211 z"
       style="font-size:16.00000954px;fill:none;stroke:#0000ff;stroke-width:0.5669291;stroke-miterlimit:4;stroke-dasharray:none;stroke-opacity:1"
       id="path391"
       inkscape:connector-curvature="0" />
    <path
       d="m 111.73393,343.92464 q 0,0.52735 0.15821,0.8379 0.1582,0.31054 0.57421,0.52734 0.28125,0.14649 0.68555,0.1875 0.39844,0.0469 0.97265,0.0469 h 1.82227 v -3.2461 h -1.53516 q -0.76171,0 -1.24804,0.0762 -0.48633,0.082 -0.79688,0.29297 -0.32812,0.22851 -0.48047,0.52149 -0.15234,0.29296 -0.15234,0.75585 z"
       style="font-size:16.00000954px;fill:none;stroke:#0000ff;stroke-width:0.5669291;stroke-miterlimit:4;stroke-dasharray:none;stroke-opacity:1"
       id="path393"
       inkscape:connector-curvature="0" />
  </g>
  <path
     style="fill:none;stroke:#ff0000;stroke-width:0.5669291;stroke-miterlimit:4;stroke-dasharray:none;stroke-opacity:1"
     d="m 507.04107,248.23329 h 24.3 v -9.075 h 15.15 V 220.7833 h 9.075 v -27.60001 h -9.075 v -27.45 h 9.075 V 138.1333 h -9.075 v -27.45001 h 9.075 V 83.083305 h -9.075 v -27.45001 h 9.075 v -27.6 h -9.075 V 9.5832946 h -15.075 V 0.50830455 h -24.3 V 9.5832946 h -24.15 V 0.50830455 h -24.3 V 9.5832946 h -15.15 V 27.958295 h -9.075 v 27.6 h 9.075 v 27.45001 h -9.075 v 27.599985 h 9.075 v 27.45 h -9.075 v 27.6 h 9.075 v 27.45 h -9.075 v 27.60001 h 9.075 v 18.44999 h 15.075 v 9.075 h 24.3 v -9.075 h 24.15 z"
     inkscape:connector-curvature="0"
     id="path441" />
</svg>
